<?xml version="1.0" encoding="utf-8"?>
<!-- Generator: Adobe Illustrator 28.2.0, SVG Export Plug-In . SVG Version: 6.00 Build 0)  -->
<svg version="1.1" id="Layer_1" xmlns="http://www.w3.org/2000/svg" xmlns:xlink="http://www.w3.org/1999/xlink" x="0px" y="0px"
	 viewBox="0 0 72 72" style="enable-background:new 0 0 72 72;" xml:space="preserve">
<g>
	<path d="M12.8,12.8c-9.6,9.6-9.6,25.1,0,34.6c8.1,8.1,20.5,9.3,29.9,3.7c1.7-1,3.3-2.3,4.8-3.7c1.5-1.5,2.7-3.1,3.7-4.8
		c5.6-9.4,4.4-21.8-3.7-29.9C37.9,3.3,22.4,3.3,12.8,12.8z M41.1,41.1c-6,6-15.9,6-21.9,0s-6-15.9,0-21.9c6-6,15.9-6,21.9,0
		S47.1,35.1,41.1,41.1z"/>
</g>
<path d="M52.6,44.1l12,12c2.3,2.3,2.3,6.1,0,8.5c-2.3,2.3-6.1,2.3-8.5,0l-12-12c1.7-1,3.3-2.3,4.8-3.7
	C50.3,47.4,51.6,45.8,52.6,44.1z"/>
</svg>
